<svg width="50" height="50" viewBox="0 0 50 50" fill="none" xmlns="http://www.w3.org/2000/svg">
<path d="M7.83333 43.75C10.568 44.3647 13.3638 44.6653 16.1667 44.6459C23.8073 44.9168 31.2446 42.1531 36.8542 36.9584C47.9167 25.7709 43.875 8.56252 43.75 7.83335C43.6642 7.44609 43.4696 7.09136 43.1891 6.81089C42.9087 6.53041 42.5539 6.33583 42.1667 6.25002C39.4313 5.63939 36.6359 5.33888 33.8333 5.35419C30.0357 5.20929 26.2469 5.81767 22.6856 7.14424C19.1242 8.47081 15.8607 10.4893 13.0833 13.0834C1.95833 24.2292 6.125 41.4375 6.25 42.1667C6.3358 42.554 6.53038 42.9087 6.81086 43.1892C7.09134 43.4696 7.44606 43.6642 7.83333 43.75ZM16.0417 16.0417C20.8539 11.6387 27.212 9.31714 33.7292 9.58335C35.8236 9.57784 37.9146 9.75209 39.9792 10.1042C40.625 14 41.875 26.0834 34.0208 33.9375C29.1747 38.3693 22.7693 40.6992 16.2083 40.4167C14.1625 40.4181 12.1202 40.2438 10.1042 39.8959C9.4375 35.9792 8.1875 23.9167 16.0417 16.0417Z" fill="#FFF200"/>
<path d="M15.1875 31.8542L18.1458 34.8125L21.875 31.0833L25.6042 34.8125L28.5625 31.8542L24.8125 28.125L28.125 24.8125L31.8542 28.5625L34.8125 25.6042L31.0625 21.875L34.8125 18.1458L31.8542 15.1875L28.125 18.9375L24.3958 15.1875L21.4375 18.1458L25.1875 21.875L21.875 25.1875L18.1458 21.4375L15.1875 24.3958L18.9375 28.125L15.1875 31.8542Z" fill="#FFF200"/>
</svg>
