<svg width="60" height="60" viewBox="0 0 60 60" fill="none" xmlns="http://www.w3.org/2000/svg">
<path d="M12.3225 47.6775C17.06 52.415 23.335 55.0225 30 55.0225C36.665 55.0225 42.9425 52.415 47.6775 47.6775C57.425 37.93 57.425 22.07 47.6775 12.32C42.9425 7.58501 36.6625 4.97501 30 4.97501C23.3375 4.97501 17.0575 7.58501 12.3225 12.3225C2.575 22.0675 2.575 37.93 12.3225 47.6775ZM30.7725 10.015C34.9478 10.1653 38.9683 11.6338 42.2575 14.21L30 26.465L26.35 22.815C29.2525 19.1175 30.83 14.545 30.7725 10.015ZM22.775 19.24L17.745 14.21C20.1064 12.359 22.8572 11.0683 25.79 10.435C25.7525 13.525 24.6775 16.6275 22.775 19.24ZM19.215 22.75C16.6683 24.4898 13.6517 25.4117 10.5675 25.3925C11.2171 22.6112 12.4605 20.0032 14.2125 17.7475L19.215 22.75ZM10.0275 30.365C10.22 30.37 10.4125 30.4 10.605 30.4C15.0042 30.414 19.2869 28.9862 22.7975 26.335L26.465 30L14.2125 42.2525C11.5684 38.847 10.1 34.6759 10.0275 30.365ZM40.7625 37.2275C43.3675 35.3325 46.4625 34.2575 49.5325 34.2125C48.9071 37.1411 47.6277 39.8905 45.79 42.255L40.7625 37.2275ZM42.255 45.79C40.0007 47.5522 37.3919 48.8059 34.6075 49.465C34.5793 46.3694 35.5016 43.3397 37.25 40.785L42.255 45.79ZM29.645 50.005C25.3239 49.9363 21.1439 48.456 17.7425 45.79L30 33.535L33.6575 37.1925C30.9 40.8025 29.51 45.3575 29.645 50.005ZM49.955 29.23C45.4375 29.185 40.8725 30.755 37.185 33.65L33.535 30L45.7875 17.7475C48.3449 21.0441 49.8026 25.0605 49.955 29.23Z" fill="#FFF200"/>
</svg>
