<svg width="50" height="50" viewBox="0 0 50 50" fill="none" xmlns="http://www.w3.org/2000/svg">
<path d="M39.7313 10.2687C37.8029 8.32512 35.5082 6.78334 32.9799 5.73269C30.4516 4.68203 27.74 4.14338 25.0021 4.14792C22.2636 4.14363 19.5515 4.68238 17.0225 5.73301C14.4936 6.78363 12.1981 8.32527 10.2688 10.2687C2.14585 18.3896 2.14585 31.6083 10.2688 39.7312C12.1981 41.6753 14.4939 43.2172 17.0233 44.2679C19.5526 45.3185 22.2653 45.857 25.0042 45.8521C27.7419 45.8569 30.4535 45.3186 32.9817 44.2683C35.51 43.218 37.8049 41.6766 39.7334 39.7333C47.8563 31.6125 47.8563 18.3937 39.7313 10.2687ZM25.3771 8.33333H24.6292C24.7563 8.33125 24.8771 8.31458 25.0042 8.31458C25.1313 8.31458 25.25 8.33125 25.3771 8.33333ZM38.0063 35.4167H33.3333L30.7125 40.6583C28.8842 41.3338 26.9512 41.6815 25.0021 41.6854C23.0494 41.6818 21.1127 41.3334 19.2813 40.6562L16.6667 35.4375H12.0104C10.2926 33.3018 9.13087 30.7737 8.62918 28.0792L12.5 22.9167L9.96668 17.8479C10.775 16.1283 11.8738 14.5609 13.2146 13.2146C15.0912 11.3314 17.3915 9.92481 19.9229 9.1125L25 12.5L30.0792 9.11458C32.6099 9.92747 34.9099 11.3331 36.7875 13.2146C38.1269 14.5593 39.2249 16.1245 40.0333 17.8417L37.5 22.9167L41.3708 28.0792C40.8715 30.765 39.7156 33.2857 38.0063 35.4167Z" fill="black"/>
<path d="M17.7083 22.9166L20.8333 31.25H29.1667L32.2917 22.9166L25 17.7083L17.7083 22.9166Z" fill="black"/>
</svg>
