<svg width="50" height="50" viewBox="0 0 50 50" fill="none" xmlns="http://www.w3.org/2000/svg">
<path d="M10.4167 45.8334H39.5833C40.6884 45.8334 41.7482 45.3944 42.5296 44.613C43.311 43.8316 43.75 42.7718 43.75 41.6667V22.9167C43.7516 22.6425 43.699 22.3707 43.5954 22.1169C43.4917 21.8631 43.3389 21.6322 43.1458 21.4375L26.4792 4.77086C26.0888 4.38283 25.5608 4.16504 25.0104 4.16504C24.46 4.16504 23.932 4.38283 23.5417 4.77086L6.875 21.4375C6.67815 21.6305 6.52155 21.8606 6.41426 22.1145C6.30698 22.3684 6.25114 22.6411 6.25 22.9167V41.6667C6.25 42.7718 6.68899 43.8316 7.47039 44.613C8.25179 45.3944 9.3116 45.8334 10.4167 45.8334ZM20.8333 41.6667V31.25H29.1667V41.6667H20.8333ZM10.4167 23.7709L25 9.18752L39.5833 23.7709V41.6667H33.3333V31.25C33.3333 30.145 32.8943 29.0851 32.1129 28.3037C31.3315 27.5223 30.2717 27.0834 29.1667 27.0834H20.8333C19.7283 27.0834 18.6685 27.5223 17.8871 28.3037C17.1057 29.0851 16.6667 30.145 16.6667 31.25V41.6667H10.4167V23.7709Z" fill="#FFF200"/>
</svg>
