<svg width="50" height="50" viewBox="0 0 50 50" fill="none" xmlns="http://www.w3.org/2000/svg">
<path d="M39.6312 35.3688C38.6555 34.4341 37.7058 33.4727 36.7833 32.4854C36.0083 31.6979 35.5417 31.125 35.5417 31.125L29.7083 28.3396C32.0437 25.6909 33.3326 22.2812 33.3333 18.75C33.3333 10.7104 26.7917 4.16669 18.75 4.16669C10.7083 4.16669 4.16666 10.7104 4.16666 18.75C4.16666 26.7896 10.7083 33.3334 18.75 33.3334C22.4229 33.3334 25.7708 31.9584 28.3396 29.7104L31.125 35.5438C31.125 35.5438 31.6979 36.0104 32.4854 36.7854C33.2917 37.5417 34.3521 38.5646 35.3687 39.6334L38.1979 42.5334L39.4562 43.8792L43.875 39.4604L42.5292 38.2021C41.7396 37.4271 40.6854 36.3979 39.6312 35.3688ZM18.75 29.1667C13.0062 29.1667 8.33332 24.4938 8.33332 18.75C8.33332 13.0063 13.0062 8.33335 18.75 8.33335C24.4937 8.33335 29.1667 13.0063 29.1667 18.75C29.1667 24.4938 24.4937 29.1667 18.75 29.1667Z" fill="#FFF200"/>
</svg>
