<svg width="50" height="50" viewBox="0 0 50 50" fill="none" xmlns="http://www.w3.org/2000/svg">
<path d="M10.2688 39.7521C14.2167 43.7 19.4458 45.8729 25 45.8729C30.5542 45.8729 35.7854 43.7 39.7313 39.7521C47.8542 31.6292 47.8542 18.4125 39.7313 10.2875C35.7854 6.34169 30.5521 4.16669 25 4.16669C19.4479 4.16669 14.2146 6.34169 10.2688 10.2875C2.14585 18.4104 2.14585 31.6292 10.2688 39.7521ZM36.7854 36.8063C34.6022 38.9956 31.8509 40.5318 28.8417 41.2417C28.8229 37.9042 30.0625 34.6875 32.3646 32.3854C34.7875 29.9625 38.0563 28.5771 41.275 28.5292C40.6114 31.6647 39.0517 34.5401 36.7854 36.8063ZM41.6292 24.3792C37.2042 24.3354 32.7042 26.1563 29.4188 29.4396C26.2271 32.6313 24.5708 37.1063 24.7042 41.6917C20.3828 41.6258 16.2585 39.8724 13.2125 36.8063C10.1628 33.755 8.42033 29.6365 8.35418 25.3229C8.5146 25.3271 8.67501 25.3521 8.83543 25.3521C13.2417 25.3521 17.5021 23.6771 20.5792 20.6021C23.8708 17.3104 25.6979 12.8125 25.6417 8.36669C29.8393 8.51744 33.8228 10.2578 36.7854 13.2354C39.7517 16.2034 41.4826 20.1856 41.6292 24.3792ZM13.2146 13.2354C15.4788 10.9607 18.3538 9.3911 21.4917 8.71669C21.4542 11.9563 20.0646 15.225 17.6354 17.6563C15.3354 19.9542 12.1313 21.1896 8.80626 21.1792C9.50436 18.1713 11.0316 15.4193 13.2146 13.2354Z" fill="#FFF200"/>
</svg>
