<svg width="50" height="50" viewBox="0 0 50 50" fill="none" xmlns="http://www.w3.org/2000/svg">
<path d="M24.9979 15.3688C22.443 15.3688 19.9927 16.3837 18.1861 18.1903C16.3795 19.9969 15.3646 22.4472 15.3646 25.0021C15.3646 27.557 16.3795 30.0073 18.1861 31.8139C19.9927 33.6205 22.443 34.6354 24.9979 34.6354C27.5528 34.6354 30.0031 33.6205 31.8097 31.8139C33.6163 30.0073 34.6312 27.557 34.6312 25.0021C34.6312 22.4472 33.6163 19.9969 31.8097 18.1903C30.0031 16.3837 27.5528 15.3688 24.9979 15.3688ZM24.9979 31.2584C23.3381 31.2584 21.7463 30.599 20.5726 29.4253C19.3989 28.2517 18.7396 26.6598 18.7396 25C18.7396 23.3402 19.3989 21.7484 20.5726 20.5747C21.7463 19.4011 23.3381 18.7417 24.9979 18.7417C26.6577 18.7417 28.2496 19.4011 29.4232 20.5747C30.5969 21.7484 31.2562 23.3402 31.2562 25C31.2562 26.6598 30.5969 28.2517 29.4232 29.4253C28.2496 30.599 26.6577 31.2584 24.9979 31.2584Z" fill="#FFF200"/>
<path d="M35.0125 17.2604C36.2528 17.2604 37.2583 16.2549 37.2583 15.0146C37.2583 13.7742 36.2528 12.7687 35.0125 12.7687C33.7722 12.7687 32.7667 13.7742 32.7667 15.0146C32.7667 16.2549 33.7722 17.2604 35.0125 17.2604Z" fill="#FFF200"/>
<path d="M42.7771 12.7313C42.2948 11.4858 41.5578 10.3548 40.6132 9.41056C39.6686 8.46634 38.5373 7.72975 37.2917 7.24794C35.834 6.70076 34.2941 6.4049 32.7375 6.37294C30.7313 6.28544 30.0958 6.26044 25.0083 6.26044C19.9208 6.26044 19.2687 6.26044 17.2792 6.37294C15.7237 6.40326 14.1849 6.69919 12.7292 7.24794C11.4832 7.72919 10.3516 8.46558 9.40695 9.40987C8.4623 10.3542 7.72548 11.4855 7.24375 12.7313C6.69647 14.1888 6.40128 15.7288 6.37083 17.2854C6.28125 19.2896 6.25417 19.925 6.25417 25.0146C6.25417 30.1021 6.25417 30.75 6.37083 32.7438C6.40208 34.3021 6.69583 35.8396 7.24375 37.3C7.72683 38.5454 8.46437 39.6762 9.40924 40.6204C10.3541 41.5645 11.4855 42.3012 12.7312 42.7833C14.1842 43.3525 15.7237 43.6696 17.2833 43.7209C19.2896 43.8083 19.925 43.8354 25.0125 43.8354C30.1 43.8354 30.7521 43.8354 32.7417 43.7209C34.2981 43.6892 35.838 43.394 37.2958 42.8479C38.5412 42.365 39.6721 41.6278 40.6166 40.6833C41.5611 39.7388 42.2983 38.6078 42.7812 37.3625C43.3292 35.9042 43.6229 34.3667 43.6542 32.8084C43.7438 30.8042 43.7708 30.1688 43.7708 25.0792C43.7708 19.9896 43.7708 19.3438 43.6542 17.35C43.6299 15.7714 43.3332 14.2089 42.7771 12.7313ZM40.2396 32.5896C40.2262 33.7902 40.007 34.9797 39.5917 36.1063C39.2788 36.9164 38.7998 37.6521 38.1856 38.266C37.5713 38.8799 36.8353 39.3585 36.025 39.6708C34.9109 40.0843 33.7341 40.3034 32.5458 40.3188C30.5667 40.4104 30.0083 40.4334 24.9333 40.4334C19.8542 40.4334 19.3354 40.4333 17.3187 40.3188C16.1311 40.3042 14.9548 40.085 13.8417 39.6708C13.0285 39.3604 12.2896 38.8827 11.6727 38.2687C11.0558 37.6547 10.5747 36.918 10.2604 36.1063C9.85093 34.9918 9.6319 33.8164 9.6125 32.6292C9.52292 30.65 9.50208 30.0917 9.50208 25.0167C9.50208 19.9396 9.50208 19.4209 9.6125 17.4021C9.62597 16.2021 9.84511 15.0134 10.2604 13.8875C10.8958 12.2438 12.1979 10.95 13.8417 10.3209C14.9554 9.90865 16.1313 9.68953 17.3187 9.67294C19.3 9.58335 19.8563 9.55835 24.9333 9.55835C30.0104 9.55835 30.5312 9.55835 32.5458 9.67294C33.7342 9.68723 34.9112 9.90642 36.025 10.3209C36.8353 10.6339 37.5711 11.1129 38.1854 11.7272C38.7996 12.3414 39.2786 13.0773 39.5917 13.8875C40.0012 15.002 40.2202 16.1774 40.2396 17.3646C40.3292 19.3459 40.3521 19.9021 40.3521 24.9792C40.3521 30.0542 40.3521 30.6 40.2625 32.5917H40.2396V32.5896Z" fill="#FFF200"/>
</svg>
