<svg width="50" height="50" viewBox="0 0 50 50" fill="none" xmlns="http://www.w3.org/2000/svg">
<path d="M40.8125 13.9375C38.7357 13.4808 36.857 12.378 35.446 10.7873C34.0349 9.19658 33.164 7.19975 32.9583 5.08335V4.16669H25.7708V32.6459C25.7723 33.9095 25.3761 35.1416 24.6384 36.1676C23.9007 37.1936 22.8589 37.9615 21.6605 38.3625C20.4622 38.7635 19.168 38.7772 17.9614 38.4018C16.7548 38.0264 15.6969 37.2809 14.9375 36.2709C14.2572 35.3768 13.8406 34.3102 13.7349 33.1917C13.6291 32.0732 13.8384 30.9474 14.3391 29.9417C14.8398 28.9359 15.6119 28.0904 16.5681 27.5006C17.5244 26.9108 18.6265 26.6003 19.75 26.6042C20.3713 26.6006 20.9896 26.692 21.5833 26.875V19.5834C20.8924 19.4978 20.1961 19.463 19.5 19.4792C16.9361 19.5477 14.4477 20.3624 12.3398 21.8235C10.2318 23.2846 8.5956 25.3287 7.63161 27.7055C6.66763 30.0823 6.41766 32.6887 6.91232 35.2054C7.40699 37.722 8.62481 40.0399 10.4167 41.875C12.2531 43.7421 14.6031 45.0211 17.1681 45.5496C19.7331 46.078 22.3973 45.8321 24.8222 44.8429C27.2471 43.8538 29.3232 42.1661 30.7867 39.9943C32.2502 37.8225 33.0351 35.2647 33.0417 32.6459V18.0625C35.9405 20.1332 39.4167 21.2409 42.9792 21.2292V14.1459C42.2794 14.1487 41.5812 14.0789 40.8958 13.9375H40.8125Z" fill="#FFF200"/>
</svg>
