<svg width="50" height="50" viewBox="0 0 50 50" fill="none" xmlns="http://www.w3.org/2000/svg">
<path d="M25 4.16669C13.7063 4.16669 4.16667 13.7063 4.16667 25C4.16667 36.2938 13.7063 45.8334 25 45.8334C36.2938 45.8334 45.8333 36.2938 45.8333 25C45.8333 13.7063 36.2938 4.16669 25 4.16669ZM25 14.5834C28.5979 14.5834 31.25 17.2334 31.25 20.8334C31.25 24.4334 28.5979 27.0834 25 27.0834C21.4042 27.0834 18.75 24.4334 18.75 20.8334C18.75 17.2334 21.4042 14.5834 25 14.5834ZM14.3625 34.9417C16.2313 32.1917 19.3479 30.3584 22.9167 30.3584H27.0833C30.6542 30.3584 33.7688 32.1917 35.6375 34.9417C32.975 37.7917 29.1979 39.5834 25 39.5834C20.8021 39.5834 17.025 37.7917 14.3625 34.9417Z" fill="#FFF200"/>
</svg>
