<svg width="50" height="50" viewBox="0 0 50 50" fill="none" xmlns="http://www.w3.org/2000/svg">
<path d="M8.33333 4.16669V41.6667H6.25V45.8334H14.5833V41.6667H12.5V31.25H39.5833C40.1359 31.25 40.6658 31.0305 41.0565 30.6398C41.4472 30.2491 41.6667 29.7192 41.6667 29.1667V8.33335C41.6667 7.78082 41.4472 7.25092 41.0565 6.86021C40.6658 6.46951 40.1359 6.25002 39.5833 6.25002H12.5V4.16669H8.33333ZM16.6667 10.4167V14.5834H20.8333V10.4167H25V14.5834H29.1667V10.4167H33.3333V14.5834H37.5V18.75H33.3333V22.9167H37.5V27.0834H33.3333V22.9167H29.1667V27.0834H25V22.9167H20.8333V27.0834H16.6667V22.9167H12.5V18.75H16.6667V14.5834H12.5V10.4167H16.6667Z" fill="#FFF200"/>
<path d="M16.6667 18.75H20.8333V22.9166H16.6667V18.75ZM25 18.75H29.1667V22.9166H25V18.75ZM20.8333 14.5833H25V18.75H20.8333V14.5833ZM29.1667 14.5833H33.3333V18.75H29.1667V14.5833Z" fill="#FFF200"/>
</svg>
